<svg xmlns="http://www.w3.org/2000/svg" width="1920" height="1080" viewBox="0 0 1920 1080">
  <rect width="1920" height="1080" fill="#FBFAF6"/>
  <g stroke-width="1.3" stroke-linecap="round">
    <line x1="1604.6" y1="827.0" x2="1672.0" y2="884.9" stroke="#178FA0" opacity="0.25"/>
    <line x1="1241.8" y1="586.7" x2="1215.1" y2="399.4" stroke="#178FA0" opacity="0.22"/>
    <line x1="1344.6" y1="67.7" x2="1459.8" y2="153.5" stroke="#C7BB42" opacity="0.26"/>
    <line x1="327.2" y1="414.6" x2="229.7" y2="472.2" stroke="#5EC0D0" opacity="0.19"/>
    <line x1="226.1" y1="672.5" x2="153.5" y2="676.3" stroke="#C7BB42" opacity="0.19"/>
    <line x1="659.7" y1="181.7" x2="598.1" y2="80.2" stroke="#C7BB42" opacity="0.25"/>
    <line x1="1241.8" y1="586.7" x2="1453.5" y2="581.0" stroke="#C7BB42" opacity="0.2"/>
    <line x1="537.1" y1="252.1" x2="452.6" y2="249.0" stroke="#178FA0" opacity="0.19"/>
    <line x1="1819.6" y1="370.1" x2="1667.6" y2="347.3" stroke="#178FA0" opacity="0.19"/>
    <line x1="1739.3" y1="497.2" x2="1778.8" y2="613.9" stroke="#178FA0" opacity="0.27"/>
    <line x1="1845.6" y1="915.2" x2="1735.7" y2="925.3" stroke="#C7BB42" opacity="0.24"/>
    <line x1="1222.1" y1="46.0" x2="1344.6" y2="67.7" stroke="#C7BB42" opacity="0.21"/>
    <line x1="41.6" y1="769.6" x2="153.5" y2="676.3" stroke="#178FA0" opacity="0.19"/>
    <line x1="1735.7" y1="925.3" x2="1670.7" y2="1004.8" stroke="#C7BB42" opacity="0.24"/>
    <line x1="913.5" y1="591.8" x2="843.6" y2="558.3" stroke="#5EC0D0" opacity="0.26"/>
    <line x1="1534.9" y1="746.1" x2="1604.6" y2="827.0" stroke="#178FA0" opacity="0.31"/>
    <line x1="813.2" y1="51.0" x2="815.5" y2="240.3" stroke="#5EC0D0" opacity="0.27"/>
    <line x1="1075.4" y1="293.3" x2="961.1" y2="205.8" stroke="#5EC0D0" opacity="0.21"/>
    <line x1="450.6" y1="53.4" x2="422.8" y2="157.6" stroke="#C7BB42" opacity="0.2"/>
    <line x1="1697.3" y1="110.4" x2="1541.7" y2="26.8" stroke="#5EC0D0" opacity="0.22"/>
    <line x1="452.6" y1="249.0" x2="422.8" y2="157.6" stroke="#178FA0" opacity="0.31"/>
    <line x1="229.7" y1="472.2" x2="181.0" y2="525.4" stroke="#C7BB42" opacity="0.18"/>
    <line x1="521.6" y1="686.6" x2="655.6" y2="631.8" stroke="#178FA0" opacity="0.32"/>
    <line x1="1667.6" y1="347.3" x2="1509.1" y2="459.0" stroke="#178FA0" opacity="0.19"/>
    <line x1="194.4" y1="120.6" x2="247.5" y2="253.7" stroke="#178FA0" opacity="0.25"/>
    <line x1="1067.1" y1="732.0" x2="913.5" y2="591.8" stroke="#178FA0" opacity="0.31"/>
    <line x1="1880.3" y1="685.6" x2="1778.8" y2="613.9" stroke="#5EC0D0" opacity="0.3"/>
    <line x1="341.7" y1="778.3" x2="226.1" y2="672.5" stroke="#5EC0D0" opacity="0.22"/>
    <line x1="1534.9" y1="746.1" x2="1613.3" y2="647.9" stroke="#C7BB42" opacity="0.3"/>
    <line x1="731.6" y1="594.1" x2="843.6" y2="558.3" stroke="#C7BB42" opacity="0.22"/>
    <line x1="1404.6" y1="723.8" x2="1534.9" y2="746.1" stroke="#C7BB42" opacity="0.25"/>
    <line x1="448.4" y1="321.0" x2="452.6" y2="249.0" stroke="#5EC0D0" opacity="0.29"/>
    <line x1="715.9" y1="237.9" x2="815.5" y2="240.3" stroke="#178FA0" opacity="0.31"/>
    <line x1="1509.1" y1="459.0" x2="1453.5" y2="581.0" stroke="#178FA0" opacity="0.31"/>
    <line x1="194.4" y1="120.6" x2="170.0" y2="262.1" stroke="#178FA0" opacity="0.22"/>
    <line x1="434.4" y1="632.8" x2="521.6" y2="686.6" stroke="#178FA0" opacity="0.28"/>
    <line x1="537.1" y1="252.1" x2="613.1" y2="298.5" stroke="#C7BB42" opacity="0.22"/>
    <line x1="69.9" y1="226.8" x2="170.0" y2="262.1" stroke="#5EC0D0" opacity="0.21"/>
    <line x1="1541.7" y1="26.8" x2="1459.8" y2="153.5" stroke="#C7BB42" opacity="0.21"/>
    <line x1="1222.1" y1="46.0" x2="1164.9" y2="179.0" stroke="#C7BB42" opacity="0.3"/>
    <line x1="1028.1" y1="1032.0" x2="1119.0" y2="953.7" stroke="#178FA0" opacity="0.25"/>
    <line x1="170.0" y1="262.1" x2="247.5" y2="253.7" stroke="#5EC0D0" opacity="0.19"/>
    <line x1="139.4" y1="416.9" x2="229.7" y2="472.2" stroke="#178FA0" opacity="0.3"/>
    <line x1="431.0" y1="545.6" x2="434.4" y2="632.8" stroke="#178FA0" opacity="0.18"/>
    <line x1="1028.1" y1="1032.0" x2="873.0" y2="1012.0" stroke="#5EC0D0" opacity="0.27"/>
    <line x1="1215.1" y1="399.4" x2="1075.4" y2="293.3" stroke="#5EC0D0" opacity="0.2"/>
    <line x1="521.9" y1="994.1" x2="416.6" y2="1000.6" stroke="#5EC0D0" opacity="0.26"/>
    <line x1="139.4" y1="416.9" x2="21.1" y2="357.1" stroke="#178FA0" opacity="0.26"/>
    <line x1="56.6" y1="986.3" x2="150.1" y2="811.0" stroke="#C7BB42" opacity="0.19"/>
    <line x1="1819.6" y1="370.1" x2="1739.3" y2="497.2" stroke="#C7BB42" opacity="0.31"/>
    <line x1="1895.4" y1="549.9" x2="1778.8" y2="613.9" stroke="#5EC0D0" opacity="0.19"/>
    <line x1="41.6" y1="769.6" x2="150.1" y2="811.0" stroke="#178FA0" opacity="0.26"/>
    <line x1="731.6" y1="594.1" x2="655.6" y2="631.8" stroke="#178FA0" opacity="0.24"/>
    <line x1="659.7" y1="181.7" x2="715.9" y2="237.9" stroke="#178FA0" opacity="0.22"/>
    <line x1="1735.7" y1="925.3" x2="1672.0" y2="884.9" stroke="#178FA0" opacity="0.31"/>
    <line x1="150.1" y1="811.0" x2="153.5" y2="676.3" stroke="#C7BB42" opacity="0.28"/>
  </g>
  <g>
    <circle cx="1222.1" cy="46.0" r="3.4" fill="#C7BB42" opacity="0.53"/>
    <circle cx="537.1" cy="252.1" r="4.4" fill="#C7BB42" opacity="0.5"/>
    <circle cx="1404.6" cy="723.8" r="6.2" fill="#178FA0" opacity="0.52"/>
    <circle cx="1697.3" cy="110.4" r="6.4" fill="#178FA0" opacity="0.53"/>
    <circle cx="813.2" cy="51.0" r="3.1" fill="#C7BB42" opacity="0.53"/>
    <circle cx="431.0" cy="545.6" r="5.7" fill="#5EC0D0" opacity="0.51"/>
    <circle cx="69.9" cy="226.8" r="6.0" fill="#178FA0" opacity="0.4"/>
    <circle cx="1241.8" cy="586.7" r="5.8" fill="#178FA0" opacity="0.42"/>
    <circle cx="434.4" cy="632.8" r="3.1" fill="#5EC0D0" opacity="0.39"/>
    <circle cx="1541.7" cy="26.8" r="5.9" fill="#5EC0D0" opacity="0.41"/>
    <circle cx="1534.9" cy="746.1" r="5.9" fill="#178FA0" opacity="0.39"/>
    <circle cx="659.7" cy="181.7" r="5.3" fill="#5EC0D0" opacity="0.41"/>
    <circle cx="1819.6" cy="370.1" r="6.0" fill="#5EC0D0" opacity="0.41"/>
    <circle cx="194.4" cy="120.6" r="4.8" fill="#C7BB42" opacity="0.55"/>
    <circle cx="1613.3" cy="647.9" r="4.9" fill="#178FA0" opacity="0.36"/>
    <circle cx="1028.1" cy="1032.0" r="6.4" fill="#178FA0" opacity="0.46"/>
    <circle cx="731.6" cy="594.1" r="6.4" fill="#178FA0" opacity="0.36"/>
    <circle cx="1344.6" cy="67.7" r="4.5" fill="#C7BB42" opacity="0.51"/>
    <circle cx="448.4" cy="321.0" r="4.5" fill="#C7BB42" opacity="0.36"/>
    <circle cx="170.0" cy="262.1" r="6.1" fill="#178FA0" opacity="0.39"/>
    <circle cx="1215.1" cy="399.4" r="5.5" fill="#178FA0" opacity="0.45"/>
    <circle cx="715.9" cy="237.9" r="5.8" fill="#C7BB42" opacity="0.49"/>
    <circle cx="521.9" cy="994.1" r="5.6" fill="#C7BB42" opacity="0.38"/>
    <circle cx="341.7" cy="778.3" r="4.5" fill="#C7BB42" opacity="0.53"/>
    <circle cx="327.2" cy="414.6" r="5.2" fill="#C7BB42" opacity="0.52"/>
    <circle cx="1880.3" cy="685.6" r="5.5" fill="#5EC0D0" opacity="0.45"/>
    <circle cx="1067.1" cy="732.0" r="5.3" fill="#5EC0D0" opacity="0.42"/>
    <circle cx="1604.6" cy="827.0" r="4.0" fill="#178FA0" opacity="0.38"/>
    <circle cx="450.6" cy="53.4" r="5.3" fill="#5EC0D0" opacity="0.48"/>
    <circle cx="613.1" cy="298.5" r="6.2" fill="#C7BB42" opacity="0.46"/>
    <circle cx="416.6" cy="1000.6" r="4.4" fill="#178FA0" opacity="0.4"/>
    <circle cx="1667.6" cy="347.3" r="3.7" fill="#C7BB42" opacity="0.47"/>
    <circle cx="1739.3" cy="497.2" r="4.1" fill="#5EC0D0" opacity="0.43"/>
    <circle cx="1075.4" cy="293.3" r="3.7" fill="#5EC0D0" opacity="0.51"/>
    <circle cx="1119.0" cy="953.7" r="6.4" fill="#C7BB42" opacity="0.38"/>
    <circle cx="1895.4" cy="549.9" r="3.3" fill="#C7BB42" opacity="0.48"/>
    <circle cx="226.1" cy="672.5" r="5.2" fill="#178FA0" opacity="0.51"/>
    <circle cx="1509.1" cy="459.0" r="5.6" fill="#C7BB42" opacity="0.41"/>
    <circle cx="139.4" cy="416.9" r="5.8" fill="#178FA0" opacity="0.35"/>
    <circle cx="1845.6" cy="915.2" r="3.9" fill="#5EC0D0" opacity="0.47"/>
    <circle cx="41.6" cy="769.6" r="5.7" fill="#5EC0D0" opacity="0.43"/>
    <circle cx="521.6" cy="686.6" r="5.2" fill="#178FA0" opacity="0.49"/>
    <circle cx="229.7" cy="472.2" r="4.3" fill="#5EC0D0" opacity="0.39"/>
    <circle cx="873.0" cy="1012.0" r="5.3" fill="#178FA0" opacity="0.53"/>
    <circle cx="961.1" cy="205.8" r="6.0" fill="#178FA0" opacity="0.5"/>
    <circle cx="1735.7" cy="925.3" r="3.8" fill="#C7BB42" opacity="0.45"/>
    <circle cx="1164.9" cy="179.0" r="3.2" fill="#178FA0" opacity="0.53"/>
    <circle cx="1453.5" cy="581.0" r="3.4" fill="#178FA0" opacity="0.51"/>
    <circle cx="21.1" cy="357.1" r="5.3" fill="#C7BB42" opacity="0.47"/>
    <circle cx="56.6" cy="986.3" r="6.3" fill="#5EC0D0" opacity="0.47"/>
    <circle cx="1672.0" cy="884.9" r="5.5" fill="#C7BB42" opacity="0.43"/>
    <circle cx="598.1" cy="80.2" r="6.2" fill="#5EC0D0" opacity="0.53"/>
    <circle cx="1670.7" cy="1004.8" r="5.6" fill="#5EC0D0" opacity="0.43"/>
    <circle cx="181.0" cy="525.4" r="5.6" fill="#C7BB42" opacity="0.4"/>
    <circle cx="150.1" cy="811.0" r="5.7" fill="#5EC0D0" opacity="0.47"/>
    <circle cx="1459.8" cy="153.5" r="4.0" fill="#178FA0" opacity="0.49"/>
    <circle cx="913.5" cy="591.8" r="3.8" fill="#5EC0D0" opacity="0.41"/>
    <circle cx="815.5" cy="240.3" r="4.9" fill="#178FA0" opacity="0.37"/>
    <circle cx="843.6" cy="558.3" r="4.3" fill="#178FA0" opacity="0.49"/>
    <circle cx="247.5" cy="253.7" r="3.2" fill="#5EC0D0" opacity="0.41"/>
    <circle cx="655.6" cy="631.8" r="4.6" fill="#178FA0" opacity="0.38"/>
    <circle cx="452.6" cy="249.0" r="4.5" fill="#C7BB42" opacity="0.54"/>
    <circle cx="153.5" cy="676.3" r="3.1" fill="#C7BB42" opacity="0.42"/>
    <circle cx="422.8" cy="157.6" r="3.0" fill="#5EC0D0" opacity="0.4"/>
    <circle cx="1778.8" cy="613.9" r="4.4" fill="#5EC0D0" opacity="0.45"/>
  </g>
</svg>
